<svg xmlns="http://www.w3.org/2000/svg" viewBox="0 0 50 50"><defs><style>.cls-1{fill:#fff;}</style></defs><title>Artboard 3-12</title><g id="Layer_3" data-name="Layer 3"><path class="cls-1" d="M11.8,30.81c-7.56,3.28-10-2.42-10-2.42Z"/><path class="cls-1" d="M12.73,31.9C6.09,38.35,1,33.55,1,33.55Z"/><path class="cls-1" d="M14.2,32.62C9.9,41.93,2.44,39.13,2.44,39.13Z"/><path class="cls-1" d="M16.08,32.76C15.5,44,6.35,44.23,6.35,44.23Z"/><path class="cls-1" d="M18.14,32.12c4.23,11.71-5.43,15.69-5.43,15.69Z"/><path class="cls-1" d="M20.06,30.62c9.55,10.19,1,18.23,1,18.23Z"/><path class="cls-1" d="M21.46,28.31C36,34.75,30.34,46.48,30.34,46.48Z"/><path class="cls-1" d="M22,25.38c18.3.56,17.28,14.85,17.28,14.85Z"/><path class="cls-1" d="M21.22,22.18C41,15.23,46,30.2,46,30.2Z"/><path class="cls-1" d="M19.07,19.23C37.12,4,49,17.18,49,17.18Z"/><path class="cls-1" d="M15.5,17.1c12.68-22.93,31-14.39,31-14.39Z"/></g></svg>