<svg xmlns="http://www.w3.org/2000/svg" viewBox="0 0 494.07 96.43"><title>jurassic-wake-logo</title><g id="Layer_1" data-name="Layer 1"><path d="M91.93,46.75c-8.83,3.83-11.68-2.82-11.68-2.82Z" transform="translate(-20.35 -12.12)" style="fill:#007bff"/><path d="M93,48C85.26,55.56,79.36,50,79.36,50Z" transform="translate(-20.35 -12.12)" style="fill:#007bff"/><path d="M94.74,48.87c-5,10.88-13.73,7.6-13.73,7.6Z" transform="translate(-20.35 -12.12)" style="fill:#007bff"/><path d="M96.93,49c-.67,13.15-11.36,13.39-11.36,13.39Z" transform="translate(-20.35 -12.12)" style="fill:#007bff"/><path d="M99.34,48.28C104.28,62,93,66.61,93,66.61Z" transform="translate(-20.35 -12.12)" style="fill:#007bff"/><path d="M101.58,46.54c11.16,11.89,1.13,21.28,1.13,21.28Z" transform="translate(-20.35 -12.12)" style="fill:#007bff"/><path d="M103.22,43.84c17,7.52,10.37,21.21,10.37,21.21Z" transform="translate(-20.35 -12.12)" style="fill:#007bff"/><path d="M103.8,40.41C125.17,41.07,124,57.76,124,57.76Z" transform="translate(-20.35 -12.12)" style="fill:#007bff"/><path d="M102.94,36.68c23.07-8.13,29,9.36,29,9.36Z" transform="translate(-20.35 -12.12)" style="fill:#007bff"/><path d="M100.42,33.23c21.09-17.77,34.92-2.39,34.92-2.39Z" transform="translate(-20.35 -12.12)" style="fill:#007bff"/><path d="M96.25,30.75C111.07,4,132.44,13.94,132.44,13.94Z" transform="translate(-20.35 -12.12)" style="fill:#007bff"/><path d="M25.75,84c-1.19.12-1.34.24-1.34,1.68v5.61c0,2-.17,3.59-1.74,4.88a5,5,0,0,1-2.07,1.05l-.25-.63a2.43,2.43,0,0,0,1.59-2,20.57,20.57,0,0,0,.19-3.32V85.64c0-1.44-.17-1.56-1.46-1.68v-.6h5.08Z" transform="translate(-20.35 -12.12)" style="fill:#007bff"/><path d="M49.41,84c-.93.05-1.36.41-1.44,1a13.49,13.49,0,0,0-.15,2.36v1.86a6,6,0,0,1-1.23,4.25,4.35,4.35,0,0,1-3.14,1.24,4.77,4.77,0,0,1-3-.89c-1-.74-1.41-2-1.41-4v-4c0-1.59-.17-1.71-1.43-1.83v-.6h5.12V84c-1.24.12-1.41.24-1.41,1.83v3.69c0,2.55.91,4,2.75,4,2,0,2.91-1.53,2.91-4.37V87.32A13.78,13.78,0,0,0,46.8,85c-.09-.59-.5-.93-1.65-1v-.6h4.26Z" transform="translate(-20.35 -12.12)" style="fill:#007bff"/><path d="M71.5,94.57l-.51,0c-2.14-.1-2.81-.58-3.49-1.65-.44-.7-.9-1.62-1.39-2.5A1.16,1.16,0,0,0,65,89.65h-.33v2.49c0,1.39.17,1.56,1.45,1.68v.59H61v-.59c1.28-.12,1.47-.29,1.47-1.68V85.61c0-1.36-.16-1.53-1.4-1.65v-.6h4.78a5,5,0,0,1,3,.65A2.58,2.58,0,0,1,70,86.27,2.94,2.94,0,0,1,67.88,89c.23.49.88,1.63,1.37,2.41a14,14,0,0,0,1.31,1.84,2.49,2.49,0,0,0,1,.73ZM65.11,89a2.21,2.21,0,0,0,2.48-2.48c0-1.8-1.06-2.47-2-2.47a1.15,1.15,0,0,0-.76.17c-.12.11-.16.28-.16.63V89Z" transform="translate(-20.35 -12.12)" style="fill:#007bff"/><path d="M93.58,94.57l-.51,0c-2.14-.1-2.8-.58-3.48-1.65-.45-.7-.9-1.62-1.4-2.5a1.16,1.16,0,0,0-1.12-.75h-.32v2.49c0,1.39.17,1.56,1.44,1.68v.59H83.06v-.59c1.27-.12,1.46-.29,1.46-1.68V85.61c0-1.36-.15-1.53-1.39-1.65v-.6H87.9a5,5,0,0,1,3,.65,2.58,2.58,0,0,1,1.15,2.26A2.94,2.94,0,0,1,90,89c.24.49.88,1.63,1.38,2.41a14,14,0,0,0,1.31,1.84,2.4,2.4,0,0,0,1,.73ZM87.19,89a2.2,2.2,0,0,0,2.48-2.48c0-1.8-1-2.47-2-2.47a1.15,1.15,0,0,0-.76.17c-.12.11-.15.28-.15.63V89Z" transform="translate(-20.35 -12.12)" style="fill:#007bff"/><path d="M111.52,94.41v-.59c1-.16,1.08-.36.81-1.11-.17-.51-.42-1.22-.68-1.92h-3.26c-.19.53-.41,1.14-.61,1.82s-.21,1,1,1.21v.59H105l0-.59c1.12-.14,1.33-.33,1.89-1.75l3.48-8.74.87-.22c1.09,3,2.14,5.93,3.25,8.85.58,1.5.8,1.72,1.87,1.86v.59Zm-1.45-8.19h0c-.48,1.24-.9,2.46-1.34,3.67h2.65Z" transform="translate(-20.35 -12.12)" style="fill:#007bff"/><path d="M134.3,86.13c-.36-1.07-1-2.32-2.38-2.32a1.62,1.62,0,0,0-1.65,1.68c0,.93.61,1.48,2.11,2.23,1.78.86,3,1.81,3,3.5,0,1.93-1.64,3.45-4.13,3.45a6.14,6.14,0,0,1-1.71-.24,7.36,7.36,0,0,1-1-.38,21.09,21.09,0,0,1-.49-2.88l.59-.19c.34,1.09,1.35,3,3,3a1.64,1.64,0,0,0,1.7-1.78c0-1-.75-1.64-2-2.32-1.75-.88-2.95-1.8-2.95-3.43,0-1.87,1.48-3.33,3.89-3.33a6.83,6.83,0,0,1,2.36.46c.07.63.19,1.37.33,2.43Z" transform="translate(-20.35 -12.12)" style="fill:#007bff"/><path d="M153.76,86.13c-.36-1.07-1-2.32-2.38-2.32a1.62,1.62,0,0,0-1.65,1.68c0,.93.61,1.48,2.11,2.23,1.79.86,3,1.81,3,3.5,0,1.93-1.65,3.45-4.13,3.45a6.21,6.21,0,0,1-1.72-.24,7.87,7.87,0,0,1-1-.38,21.09,21.09,0,0,1-.49-2.88l.6-.19c.34,1.09,1.34,3,3,3a1.63,1.63,0,0,0,1.7-1.78c0-1-.75-1.64-2-2.32-1.75-.88-3-1.8-3-3.43,0-1.87,1.48-3.33,3.89-3.33a7,7,0,0,1,2.37.46c.06.63.18,1.37.32,2.43Z" transform="translate(-20.35 -12.12)" style="fill:#007bff"/><path d="M166.72,94.41v-.59c1.25-.12,1.41-.24,1.41-1.67V85.64c0-1.44-.16-1.56-1.41-1.68v-.6h5.09V84c-1.25.12-1.41.24-1.41,1.68v6.51c0,1.43.16,1.55,1.41,1.67v.59Z" transform="translate(-20.35 -12.12)" style="fill:#007bff"/><path d="M194.42,91.52a19.78,19.78,0,0,1-.95,2.71,16.68,16.68,0,0,1-3.16.44c-4.52,0-6.41-2.94-6.41-5.65,0-3.48,2.69-5.91,6.75-5.91a13.19,13.19,0,0,1,3.09.46c.16.93.28,1.71.39,2.78l-.62.12a3.12,3.12,0,0,0-3.18-2.61c-2.47,0-3.83,2.32-3.83,4.82,0,3.13,1.69,5.19,4,5.19,1.41,0,2.46-.9,3.33-2.62Z" transform="translate(-20.35 -12.12)" style="fill:#007bff"/><path d="M70.49,103.56l-1.38,4.9h-.67l-1-3.58a1.94,1.94,0,0,1-.08-.5h0a4,4,0,0,1-.09.5l-1,3.58h-.66l-1.44-4.9h.63l1,3.76a2,2,0,0,1,.09.49h0a2.83,2.83,0,0,1,.11-.49l1.08-3.76h.55l1,3.79a1.9,1.9,0,0,1,.08.46h0a2.89,2.89,0,0,1,.09-.47l1-3.78Z" transform="translate(-20.35 -12.12)" style="fill:#333"/><path d="M80.22,108.46h-.63l-.52-1.37H77l-.49,1.37h-.64l1.88-4.9h.6Zm-1.34-1.89-.77-2.08a2.22,2.22,0,0,1-.07-.33h0a1.59,1.59,0,0,1-.08.33l-.76,2.08Z" transform="translate(-20.35 -12.12)" style="fill:#333"/><path d="M89.82,108.46H89l-1.9-2.24a1.54,1.54,0,0,1-.13-.17h0v2.41H86.4v-4.9H87v2.31h0a1.55,1.55,0,0,1,.13-.17L89,103.56h.72l-2.1,2.35Z" transform="translate(-20.35 -12.12)" style="fill:#333"/><path d="M98.52,108.46h-2.6v-4.9h2.49v.52H96.5v1.63h1.77v.52H96.5v1.71h2Z" transform="translate(-20.35 -12.12)" style="fill:#333"/><path d="M116.6,108.54a1.11,1.11,0,0,1-.34-.05,1.25,1.25,0,0,1-.28-.15,1.36,1.36,0,0,1-.24-.24,3,3,0,0,1-.25-.32,2.26,2.26,0,0,1-.32.29,2.23,2.23,0,0,1-.4.24,2.17,2.17,0,0,1-.47.17,2.62,2.62,0,0,1-.57.06,2.48,2.48,0,0,1-.68-.09,1.43,1.43,0,0,1-.52-.27,1.22,1.22,0,0,1-.34-.44,1.48,1.48,0,0,1-.12-.61,1.4,1.4,0,0,1,.29-.89,2.14,2.14,0,0,1,.85-.61,1.68,1.68,0,0,1-.21-.18,1.14,1.14,0,0,1-.31-.51.93.93,0,0,1,0-.34,1.06,1.06,0,0,1,.1-.48,1,1,0,0,1,.26-.35,1.34,1.34,0,0,1,.41-.22,2,2,0,0,1,.5-.07,1.87,1.87,0,0,1,.49.07,1,1,0,0,1,.62.54,1,1,0,0,1,.09.43,1,1,0,0,1-.23.68,1.9,1.9,0,0,1-.7.47,1.86,1.86,0,0,1,.42.22,2.6,2.6,0,0,1,.36.3,3.44,3.44,0,0,1,.3.35l.28.39a2.91,2.91,0,0,0,.41-.85,3.18,3.18,0,0,0,.14-1,1.93,1.93,0,0,0,0-.24,1.89,1.89,0,0,0,0-.23h.55a.89.89,0,0,1,0,.22c0,.06,0,.14,0,.24a3.34,3.34,0,0,1-.06.62,3.92,3.92,0,0,1-.18.61,3.64,3.64,0,0,1-.25.57,4.41,4.41,0,0,1-.31.48l.22.29a1.26,1.26,0,0,0,.2.2.57.57,0,0,0,.21.12.61.61,0,0,0,.24,0l.21,0,.22-.07v.52l-.26.07Zm-2.87-.48a1.86,1.86,0,0,0,.48-.06,2.08,2.08,0,0,0,.4-.15,1.33,1.33,0,0,0,.34-.22,2.23,2.23,0,0,0,.27-.26c-.14-.22-.27-.4-.38-.56a3.46,3.46,0,0,0-.36-.39,2,2,0,0,0-.38-.29,3.45,3.45,0,0,0-.47-.22,2.46,2.46,0,0,0-.4.19,1.5,1.5,0,0,0-.31.24,1.15,1.15,0,0,0-.21.33,1.23,1.23,0,0,0-.07.44,1,1,0,0,0,.08.41.89.89,0,0,0,.24.3,1,1,0,0,0,.34.18A1.54,1.54,0,0,0,113.73,108.06Zm.86-3.49a.62.62,0,0,0-.07-.29.53.53,0,0,0-.16-.2.78.78,0,0,0-.22-.12.85.85,0,0,0-.23,0,.8.8,0,0,0-.54.18.63.63,0,0,0-.2.49.71.71,0,0,0,0,.26.84.84,0,0,0,.12.23.81.81,0,0,0,.18.19,1,1,0,0,0,.22.14,1.66,1.66,0,0,0,.64-.35A.67.67,0,0,0,114.59,104.57Z" transform="translate(-20.35 -12.12)" style="fill:#333"/><path d="M130.51,108.27v-.68a1.12,1.12,0,0,0,.28.18,2,2,0,0,0,.34.14,2.37,2.37,0,0,0,.36.09l.34,0a1.31,1.31,0,0,0,.79-.2.65.65,0,0,0,.26-.56.78.78,0,0,0-.08-.35,1,1,0,0,0-.25-.27,2.82,2.82,0,0,0-.36-.23l-.45-.23-.48-.26a2,2,0,0,1-.39-.3,1.5,1.5,0,0,1-.26-.36,1.21,1.21,0,0,1-.09-.48,1.09,1.09,0,0,1,.15-.58,1.15,1.15,0,0,1,.38-.41,1.61,1.61,0,0,1,.55-.24,2.57,2.57,0,0,1,.62-.08,2.32,2.32,0,0,1,1.06.18v.64a1.92,1.92,0,0,0-1.12-.3,1.55,1.55,0,0,0-.37,0,1.15,1.15,0,0,0-.34.13.87.87,0,0,0-.24.23.59.59,0,0,0-.09.34.66.66,0,0,0,.07.32.82.82,0,0,0,.21.25,1.72,1.72,0,0,0,.33.22l.45.23a4.68,4.68,0,0,1,.5.28,2.29,2.29,0,0,1,.42.31,1.48,1.48,0,0,1,.28.39,1.07,1.07,0,0,1,.1.49,1.17,1.17,0,0,1-.14.61,1.15,1.15,0,0,1-.38.41,1.88,1.88,0,0,1-.56.23,3.51,3.51,0,0,1-.66.07l-.29,0-.35-.06a1.78,1.78,0,0,1-.33-.09A1.07,1.07,0,0,1,130.51,108.27Z" transform="translate(-20.35 -12.12)" style="fill:#333"/><path d="M143.33,108.46h-.8l-1.89-2.24a.82.82,0,0,1-.13-.17h0v2.41h-.58v-4.9h.58v2.31h0a.86.86,0,0,1,.13-.17l1.83-2.14h.71l-2.1,2.35Z" transform="translate(-20.35 -12.12)" style="fill:#333"/><path d="M150,108.46h-.58v-4.9H150Z" transform="translate(-20.35 -12.12)" style="fill:#333"/></g><g id="Layer_2" data-name="Layer 2"><path d="M252.48,63c-5.28,2.29-7-1.69-7-1.69Z" transform="translate(-20.35 -12.12)" style="fill:#000333"/><path d="M253.13,63.76c-4.63,4.51-8.16,1.16-8.16,1.16Z" transform="translate(-20.35 -12.12)" style="fill:#000333"/><path d="M254.16,64.27c-3,6.5-8.21,4.54-8.21,4.54Z" transform="translate(-20.35 -12.12)" style="fill:#000333"/><path d="M255.47,64.36c-.4,7.86-6.79,8-6.79,8Z" transform="translate(-20.35 -12.12)" style="fill:#000333"/><path d="M256.91,63.92c2.95,8.17-3.79,11-3.79,11Z" transform="translate(-20.35 -12.12)" style="fill:#000333"/><path d="M258.25,62.87c6.66,7.11.67,12.72.67,12.72Z" transform="translate(-20.35 -12.12)" style="fill:#000333"/><path d="M259.22,61.26c10.17,4.49,6.2,12.68,6.2,12.68Z" transform="translate(-20.35 -12.12)" style="fill:#000333"/><path d="M259.57,59.21c12.77.4,12.07,10.37,12.07,10.37Z" transform="translate(-20.35 -12.12)" style="fill:#000333"/><path d="M259.06,57c13.78-4.85,17.32,5.59,17.32,5.59Z" transform="translate(-20.35 -12.12)" style="fill:#000333"/><path d="M257.56,54.92c12.59-10.62,20.86-1.43,20.86-1.43Z" transform="translate(-20.35 -12.12)" style="fill:#000333"/><path d="M255.06,53.44c8.86-16,21.63-10,21.63-10Z" transform="translate(-20.35 -12.12)" style="fill:#000333"/><path d="M298,51c-1,.1-1.08.2-1.08,1.36v4.52c0,1.58-.14,2.88-1.4,3.93a3.94,3.94,0,0,1-1.67.84l-.2-.5A2,2,0,0,0,295,59.45a16.46,16.46,0,0,0,.15-2.67V52.32c0-1.16-.13-1.26-1.17-1.36v-.48H298Z" transform="translate(-20.35 -12.12)" style="fill:#000333"/><path d="M317.08,51c-.75,0-1.1.33-1.17.81a12.31,12.31,0,0,0-.12,1.9v1.5a4.81,4.81,0,0,1-1,3.42,3.5,3.5,0,0,1-2.54,1,3.85,3.85,0,0,1-2.42-.71c-.78-.61-1.14-1.62-1.14-3.22V52.44c0-1.28-.13-1.38-1.15-1.48v-.48h4.12V51c-1,.1-1.13.2-1.13,1.48v3c0,2.06.74,3.25,2.22,3.25s2.34-1.23,2.34-3.52V53.67a10.41,10.41,0,0,0-.14-1.9c-.07-.48-.4-.75-1.33-.81v-.48h3.44Z" transform="translate(-20.35 -12.12)" style="fill:#000333"/><path d="M334.86,59.51l-.41,0c-1.72-.08-2.26-.46-2.8-1.33-.36-.56-.73-1.3-1.13-2a.93.93,0,0,0-.9-.6h-.26v2c0,1.12.14,1.26,1.16,1.35v.48h-4.13V58.9c1-.09,1.18-.23,1.18-1.35V52.29c0-1.09-.13-1.23-1.13-1.33v-.48h3.85a4.1,4.1,0,0,1,2.44.52,2.12,2.12,0,0,1,.93,1.83A2.39,2.39,0,0,1,332,55.06c.19.39.71,1.31,1.11,1.94a12.13,12.13,0,0,0,1.05,1.48,2.07,2.07,0,0,0,.83.59ZM329.72,55a1.77,1.77,0,0,0,2-2c0-1.45-.85-2-1.61-2a1,1,0,0,0-.62.14c-.09.08-.12.22-.12.51V55Z" transform="translate(-20.35 -12.12)" style="fill:#000333"/><path d="M352.65,59.51l-.41,0c-1.73-.08-2.26-.46-2.81-1.33-.36-.56-.73-1.3-1.12-2a.94.94,0,0,0-.91-.6h-.26v2c0,1.12.14,1.26,1.17,1.35v.48h-4.14V58.9c1-.09,1.18-.23,1.18-1.35V52.29c0-1.09-.12-1.23-1.12-1.33v-.48h3.84a4.08,4.08,0,0,1,2.44.52,2.1,2.1,0,0,1,.93,1.83,2.38,2.38,0,0,1-1.71,2.23c.19.39.71,1.31,1.11,1.94a12.13,12.13,0,0,0,1.05,1.48,2,2,0,0,0,.84.59ZM347.5,55a1.78,1.78,0,0,0,2-2c0-1.45-.85-2-1.62-2a.91.91,0,0,0-.61.14c-.1.08-.13.22-.13.51V55Z" transform="translate(-20.35 -12.12)" style="fill:#000333"/><path d="M367.09,59.38V58.9c.81-.12.88-.28.66-.89-.14-.41-.34-1-.55-1.54h-2.63c-.15.42-.33.91-.49,1.46s-.17.85.83,1v.48h-3.06V58.9c.9-.11,1.07-.26,1.52-1.41l2.81-7,.7-.18c.87,2.4,1.72,4.78,2.61,7.13.47,1.21.64,1.38,1.51,1.49v.48Zm-1.16-6.6h0c-.39,1-.73,2-1.09,3h2.14Z" transform="translate(-20.35 -12.12)" style="fill:#000333"/><path d="M385.44,52.72c-.29-.87-.8-1.88-1.92-1.88a1.31,1.31,0,0,0-1.33,1.36c0,.75.5,1.19,1.7,1.79,1.44.7,2.42,1.46,2.42,2.82,0,1.56-1.32,2.78-3.32,2.78a5,5,0,0,1-1.39-.19,7,7,0,0,1-.83-.3,18.07,18.07,0,0,1-.4-2.33l.48-.15c.28.87,1.08,2.41,2.4,2.41a1.33,1.33,0,0,0,1.37-1.44c0-.81-.61-1.31-1.63-1.86-1.41-.71-2.39-1.45-2.39-2.77,0-1.5,1.2-2.68,3.14-2.68a5.4,5.4,0,0,1,1.9.37c.06.51.15,1.11.26,2Z" transform="translate(-20.35 -12.12)" style="fill:#000333"/><path d="M401.11,52.72c-.29-.87-.79-1.88-1.91-1.88a1.31,1.31,0,0,0-1.33,1.36c0,.75.49,1.19,1.7,1.79,1.43.7,2.42,1.46,2.42,2.82,0,1.56-1.33,2.78-3.33,2.78a5,5,0,0,1-1.38-.19,8,8,0,0,1-.84-.3,16.74,16.74,0,0,1-.39-2.33l.48-.15c.27.87,1.08,2.41,2.39,2.41a1.32,1.32,0,0,0,1.37-1.44c0-.81-.6-1.31-1.63-1.86-1.41-.71-2.38-1.45-2.38-2.77,0-1.5,1.19-2.68,3.13-2.68a5.52,5.52,0,0,1,1.91.37c.05.51.15,1.11.26,2Z" transform="translate(-20.35 -12.12)" style="fill:#000333"/><path d="M411.54,59.38V58.9c1-.09,1.14-.19,1.14-1.34V52.32c0-1.16-.12-1.26-1.14-1.36v-.48h4.11V51c-1,.1-1.13.2-1.13,1.36v5.24c0,1.15.12,1.25,1.13,1.34v.48Z" transform="translate(-20.35 -12.12)" style="fill:#000333"/><path d="M433.86,57.06a15.57,15.57,0,0,1-.77,2.17,13.32,13.32,0,0,1-2.54.36c-3.64,0-5.16-2.37-5.16-4.55,0-2.8,2.16-4.76,5.43-4.76a10.76,10.76,0,0,1,2.49.37c.13.75.22,1.38.32,2.24l-.51.1a2.51,2.51,0,0,0-2.56-2.11c-2,0-3.08,1.88-3.08,3.89,0,2.52,1.36,4.17,3.22,4.17,1.13,0,2-.72,2.68-2.1Z" transform="translate(-20.35 -12.12)" style="fill:#000333"/><path d="M298.79,67l-1.11,4h-.54L296.32,68a2.52,2.52,0,0,1-.06-.41h0a2.57,2.57,0,0,1-.07.4l-.82,2.89h-.54l-1.15-4h.51l.84,3a2.57,2.57,0,0,1,.06.4h0a1.55,1.55,0,0,1,.08-.4l.87-3h.45l.83,3a3.06,3.06,0,0,1,.07.37h0a2.9,2.9,0,0,1,.07-.38l.81-3Z" transform="translate(-20.35 -12.12)" style="fill:#000333"/><path d="M306.63,70.92h-.51l-.42-1.11H304l-.39,1.11h-.51l1.51-4h.48Zm-1.08-1.52-.62-1.68a1.91,1.91,0,0,1-.06-.27h0a.9.9,0,0,1-.06.27l-.61,1.68Z" transform="translate(-20.35 -12.12)" style="fill:#000333"/><path d="M314.35,70.92h-.64l-1.53-1.81-.1-.13h0v1.94h-.46V67h.46v1.86h0a.94.94,0,0,1,.1-.14L313.66,67h.57l-1.69,1.9Z" transform="translate(-20.35 -12.12)" style="fill:#000333"/><path d="M321.37,70.92h-2.1V67h2v.42h-1.54V68.7h1.42v.42h-1.42V70.5h1.63Z" transform="translate(-20.35 -12.12)" style="fill:#000333"/><path d="M335.92,71a.77.77,0,0,1-.27,0,1,1,0,0,1-.23-.12,1.7,1.7,0,0,1-.19-.19,2.94,2.94,0,0,1-.2-.26,1.47,1.47,0,0,1-.26.23,2,2,0,0,1-.32.2,1.88,1.88,0,0,1-.38.13,1.66,1.66,0,0,1-.46,0,1.86,1.86,0,0,1-.54-.07,1.17,1.17,0,0,1-.43-.22,1.1,1.1,0,0,1-.27-.36,1.21,1.21,0,0,1-.1-.48,1.12,1.12,0,0,1,.24-.72,1.78,1.78,0,0,1,.68-.49L333,68.5a1.33,1.33,0,0,1-.14-.19.82.82,0,0,1-.11-.23,1.1,1.1,0,0,1,0-.27,1,1,0,0,1,.08-.39.85.85,0,0,1,.22-.28.9.9,0,0,1,.32-.17,1.35,1.35,0,0,1,.41-.06,1.23,1.23,0,0,1,.39.06.74.74,0,0,1,.3.17.63.63,0,0,1,.2.26.77.77,0,0,1,.08.34.83.83,0,0,1-.19.55,1.57,1.57,0,0,1-.57.38,1.92,1.92,0,0,1,.35.18,2.4,2.4,0,0,1,.52.52l.23.31a2,2,0,0,0,.33-.68,2.56,2.56,0,0,0,.12-.79,1.11,1.11,0,0,0,0-.19,1.48,1.48,0,0,0,0-.19h.44a1.24,1.24,0,0,1,0,.18,1.09,1.09,0,0,1,0,.19,2.07,2.07,0,0,1-.05.5,2.85,2.85,0,0,1-.14.5,4.15,4.15,0,0,1-.45.84,1.54,1.54,0,0,0,.18.23.87.87,0,0,0,.16.17.53.53,0,0,0,.36.12.5.5,0,0,0,.17,0l.17-.05v.42l-.2,0A.82.82,0,0,1,335.92,71Zm-2.31-.39a1.61,1.61,0,0,0,.39,0,1.52,1.52,0,0,0,.32-.12,1.27,1.27,0,0,0,.27-.18,2.23,2.23,0,0,0,.22-.21,4.93,4.93,0,0,0-.31-.45,3,3,0,0,0-.28-.32,1.66,1.66,0,0,0-.31-.23l-.38-.18-.32.15a1.29,1.29,0,0,0-.25.2.87.87,0,0,0-.23.62.81.81,0,0,0,.07.33.65.65,0,0,0,.19.24.67.67,0,0,0,.28.14A1,1,0,0,0,333.61,70.59Zm.69-2.81a.41.41,0,0,0-.05-.23.42.42,0,0,0-.13-.16.56.56,0,0,0-.17-.09l-.19,0a.63.63,0,0,0-.43.14.51.51,0,0,0-.17.4.46.46,0,0,0,0,.21.66.66,0,0,0,.09.19,1.06,1.06,0,0,0,.15.15l.17.11a1.39,1.39,0,0,0,.52-.28A.52.52,0,0,0,334.3,67.78Z" transform="translate(-20.35 -12.12)" style="fill:#000333"/><path d="M347.13,70.76v-.54a1.18,1.18,0,0,0,.22.14,1.39,1.39,0,0,0,.28.12l.29.07.27,0a1,1,0,0,0,.64-.16A.52.52,0,0,0,349,70a.61.61,0,0,0-.07-.28.82.82,0,0,0-.2-.22,2.45,2.45,0,0,0-.29-.18c-.11-.06-.23-.13-.37-.19l-.38-.21a2.79,2.79,0,0,1-.31-.24,1.12,1.12,0,0,1-.21-.29.93.93,0,0,1-.08-.39.91.91,0,0,1,.12-.47,1.22,1.22,0,0,1,.31-.33A1.58,1.58,0,0,1,348,67a2.16,2.16,0,0,1,.51-.06,1.86,1.86,0,0,1,.85.14v.52a1.59,1.59,0,0,0-.9-.24,1.53,1.53,0,0,0-.3,0,.79.79,0,0,0-.27.1.7.7,0,0,0-.2.18.51.51,0,0,0-.07.28.53.53,0,0,0,.06.26.51.51,0,0,0,.16.2l.27.18.37.19.4.22a2,2,0,0,1,.33.25,1.31,1.31,0,0,1,.23.31,1,1,0,0,1,.08.39.91.91,0,0,1-.42.83,1.51,1.51,0,0,1-.45.18,2.33,2.33,0,0,1-.53.06l-.23,0-.28,0-.28-.07A.75.75,0,0,1,347.13,70.76Z" transform="translate(-20.35 -12.12)" style="fill:#000333"/><path d="M357.45,70.92h-.64l-1.53-1.81-.1-.13h0v1.94h-.46V67h.46v1.86h0l.1-.14L356.76,67h.57l-1.69,1.9Z" transform="translate(-20.35 -12.12)" style="fill:#000333"/><path d="M362.84,70.92h-.47V67h.47Z" transform="translate(-20.35 -12.12)" style="fill:#000333"/></g><g id="Layer_3" data-name="Layer 3"><path d="M477.24,63.86c-7.56,3.28-10-2.42-10-2.42Z" transform="translate(-20.35 -12.12)" style="fill:#fff"/><path d="M478.18,65c-6.64,6.45-11.7,1.66-11.7,1.66Z" transform="translate(-20.35 -12.12)" style="fill:#fff"/><path d="M479.65,65.67c-4.3,9.31-11.76,6.51-11.76,6.51Z" transform="translate(-20.35 -12.12)" style="fill:#fff"/><path d="M481.53,65.81c-.58,11.26-9.73,11.47-9.73,11.47Z" transform="translate(-20.35 -12.12)" style="fill:#fff"/><path d="M483.59,65.17c4.23,11.71-5.43,15.69-5.43,15.69Z" transform="translate(-20.35 -12.12)" style="fill:#fff"/><path d="M485.51,63.68c9.55,10.18,1,18.22,1,18.22Z" transform="translate(-20.35 -12.12)" style="fill:#fff"/><path d="M486.91,61.36c14.57,6.45,8.88,18.17,8.88,18.17Z" transform="translate(-20.35 -12.12)" style="fill:#fff"/><path d="M487.41,58.43c18.3.57,17.28,14.85,17.28,14.85Z" transform="translate(-20.35 -12.12)" style="fill:#fff"/><path d="M486.67,55.23c19.75-6.95,24.82,8,24.82,8Z" transform="translate(-20.35 -12.12)" style="fill:#fff"/><path d="M484.52,52.28c18.05-15.22,29.9-2.05,29.9-2.05Z" transform="translate(-20.35 -12.12)" style="fill:#fff"/><path d="M481,50.16c12.68-22.94,31-14.4,31-14.4Z" transform="translate(-20.35 -12.12)" style="fill:#fff"/></g></svg>