<svg xmlns="http://www.w3.org/2000/svg" viewBox="0 0 192.62 36.28"><defs><style>.cls-1{fill:#fff;}</style></defs><title>Artboard 2-12</title><g id="Layer_2" data-name="Layer 2"><path class="cls-1" d="M9.61,22c-5.28,2.29-7-1.69-7-1.69Z"/><path class="cls-1" d="M10.26,22.76c-4.64,4.5-8.16,1.16-8.16,1.16Z"/><path class="cls-1" d="M11.29,23.27c-3,6.49-8.21,4.54-8.21,4.54Z"/><path class="cls-1" d="M12.6,23.36c-.4,7.86-6.79,8-6.79,8Z"/><path class="cls-1" d="M14,22.91c3,8.18-3.78,11-3.78,11Z"/><path class="cls-1" d="M15.37,21.87c6.67,7.11.68,12.72.68,12.72Z"/><path class="cls-1" d="M16.35,20.26c10.17,4.49,6.2,12.67,6.2,12.67Z"/><path class="cls-1" d="M16.7,18.21c12.77.39,12.06,10.36,12.06,10.36Z"/><path class="cls-1" d="M16.19,16C30,11.12,33.51,21.57,33.51,21.57Z"/><path class="cls-1" d="M14.68,13.92c12.6-10.62,20.87-1.43,20.87-1.43Z"/><path class="cls-1" d="M12.19,12.44c8.86-16,21.63-10,21.63-10Z"/><path class="cls-1" d="M55.15,10c-1,.1-1.08.19-1.08,1.36v4.52c0,1.58-.14,2.88-1.4,3.92a3.91,3.91,0,0,1-1.67.85l-.2-.5a2,2,0,0,0,1.28-1.66,16.46,16.46,0,0,0,.15-2.67V11.32c0-1.17-.13-1.26-1.17-1.36V9.48h4.09Z"/><path class="cls-1" d="M74.21,10c-.76,0-1.1.33-1.17.81a11.13,11.13,0,0,0-.12,1.9v1.5a4.76,4.76,0,0,1-1,3.42,3.48,3.48,0,0,1-2.53,1A3.85,3.85,0,0,1,67,17.88c-.78-.61-1.14-1.62-1.14-3.22V11.44c0-1.29-.13-1.38-1.15-1.48V9.48h4.12V10c-1,.1-1.13.19-1.13,1.48v3c0,2.06.74,3.25,2.21,3.25,1.63,0,2.34-1.24,2.34-3.52V12.67a10.68,10.68,0,0,0-.13-1.9c-.07-.48-.4-.75-1.33-.81V9.48h3.44Z"/><path class="cls-1" d="M92,18.51l-.41,0c-1.73-.08-2.26-.46-2.81-1.33-.35-.56-.72-1.3-1.12-2a.93.93,0,0,0-.9-.6h-.26v2c0,1.12.13,1.26,1.16,1.35v.48H83.52V17.9c1-.09,1.17-.23,1.17-1.35V11.29c0-1.09-.12-1.23-1.12-1.33V9.48h3.85a4,4,0,0,1,2.43.52,2.1,2.1,0,0,1,.94,1.82,2.39,2.39,0,0,1-1.72,2.24c.2.39.72,1.31,1.11,1.94a11.9,11.9,0,0,0,1.06,1.48,2.07,2.07,0,0,0,.83.59ZM86.84,14a1.92,1.92,0,0,0,1.34-.37A2,2,0,0,0,88.84,12c0-1.45-.85-2-1.61-2a.93.93,0,0,0-.62.14c-.1.08-.12.22-.12.5V14Z"/><path class="cls-1" d="M109.78,18.51l-.42,0c-1.72-.08-2.25-.46-2.8-1.33-.36-.56-.73-1.3-1.12-2a.94.94,0,0,0-.91-.6h-.26v2c0,1.12.14,1.26,1.17,1.35v.48H101.3V17.9c1-.09,1.18-.23,1.18-1.35V11.29c0-1.09-.13-1.23-1.12-1.33V9.48h3.84a4.1,4.1,0,0,1,2.44.52,2.09,2.09,0,0,1,.93,1.82,2.38,2.38,0,0,1-1.71,2.24c.19.39.71,1.31,1.11,1.94a12.13,12.13,0,0,0,1,1.48,2,2,0,0,0,.84.59ZM104.63,14a1.78,1.78,0,0,0,2-2c0-1.45-.85-2-1.62-2a1,1,0,0,0-.62.14c-.09.08-.12.22-.12.5V14Z"/><path class="cls-1" d="M124.22,18.38V17.9c.81-.12.87-.28.66-.89-.14-.41-.35-1-.55-1.54H121.7c-.15.42-.33.91-.49,1.46s-.17.85.83,1v.48H119V17.9c.9-.11,1.07-.26,1.52-1.41l2.81-7,.69-.18c.88,2.39,1.73,4.78,2.62,7.13.46,1.21.64,1.38,1.5,1.49v.48Zm-1.17-6.6h0c-.38,1-.72,2-1.08,3h2.14Z"/><path class="cls-1" d="M142.57,11.72c-.29-.87-.8-1.88-1.92-1.88a1.3,1.3,0,0,0-1.33,1.36c0,.75.49,1.19,1.7,1.79,1.44.7,2.42,1.46,2.42,2.82,0,1.56-1.33,2.78-3.33,2.78a5,5,0,0,1-1.38-.19,5.36,5.36,0,0,1-.83-.31,16,16,0,0,1-.4-2.32l.48-.15c.27.87,1.08,2.41,2.4,2.41a1.32,1.32,0,0,0,1.36-1.44c0-.81-.6-1.32-1.63-1.86-1.41-.72-2.38-1.45-2.38-2.77,0-1.5,1.19-2.68,3.14-2.68a5.51,5.51,0,0,1,1.9.37c0,.5.15,1.11.26,2Z"/><path class="cls-1" d="M158.24,11.72c-.29-.87-.79-1.88-1.92-1.88A1.3,1.3,0,0,0,155,11.2c0,.75.49,1.19,1.69,1.79,1.44.7,2.43,1.46,2.43,2.82,0,1.56-1.33,2.78-3.33,2.78a5,5,0,0,1-1.38-.19,5.16,5.16,0,0,1-.84-.31,17.54,17.54,0,0,1-.4-2.32l.48-.15c.28.87,1.09,2.41,2.4,2.41a1.32,1.32,0,0,0,1.37-1.44c0-.81-.6-1.32-1.63-1.86-1.41-.72-2.38-1.45-2.38-2.77,0-1.5,1.19-2.68,3.13-2.68a5.52,5.52,0,0,1,1.91.37c.05.5.15,1.11.26,2Z"/><path class="cls-1" d="M168.67,18.38V17.9c1-.09,1.14-.19,1.14-1.34V11.32c0-1.17-.12-1.26-1.14-1.36V9.48h4.11V10c-1,.1-1.14.19-1.14,1.36v5.24c0,1.15.13,1.25,1.14,1.34v.48Z"/><path class="cls-1" d="M191,16.05a16.62,16.62,0,0,1-.77,2.18,13.32,13.32,0,0,1-2.54.36c-3.65,0-5.17-2.37-5.17-4.55,0-2.8,2.17-4.76,5.44-4.76a10.76,10.76,0,0,1,2.49.37c.12.75.22,1.38.32,2.24l-.51.1a2.52,2.52,0,0,0-2.56-2.11c-2,0-3.08,1.88-3.08,3.89,0,2.52,1.35,4.17,3.22,4.17,1.13,0,2-.72,2.68-2.1Z"/><path class="cls-1" d="M91.18,26l-1.11,4h-.54L88.71,27a2.25,2.25,0,0,1-.06-.4h0a2.57,2.57,0,0,1-.07.4l-.82,2.89h-.54l-1.15-4h.51l.84,3a2.57,2.57,0,0,1,.06.4h0a1.55,1.55,0,0,1,.08-.4l.87-3h.45L89.72,29a3.06,3.06,0,0,1,.07.37h0a2.9,2.9,0,0,1,.07-.38l.81-3Z"/><path class="cls-1" d="M99,29.92h-.51l-.42-1.11H96.41L96,29.92H95.5L97,26h.48ZM97.94,28.4l-.62-1.68a1.91,1.91,0,0,1-.06-.27h0a.9.9,0,0,1-.06.27l-.61,1.68Z"/><path class="cls-1" d="M106.74,29.92h-.64l-1.53-1.81-.1-.13h0v1.94H104V26h.46v1.86h0a.94.94,0,0,1,.1-.14L106.05,26h.57l-1.69,1.9Z"/><path class="cls-1" d="M113.75,29.92h-2.09V26h2v.42h-1.54V27.7h1.42v.42h-1.42V29.5h1.62Z"/><path class="cls-1" d="M128.31,30a.77.77,0,0,1-.27,0,1,1,0,0,1-.23-.12,1.7,1.7,0,0,1-.19-.19,2.94,2.94,0,0,1-.2-.26,2.19,2.19,0,0,1-.58.43,1.88,1.88,0,0,1-.38.13A1.66,1.66,0,0,1,126,30a1.81,1.81,0,0,1-.54-.07,1.17,1.17,0,0,1-.43-.22,1.08,1.08,0,0,1-.37-.84,1.12,1.12,0,0,1,.24-.72,1.68,1.68,0,0,1,.68-.49l-.17-.14a1.33,1.33,0,0,1-.14-.19.82.82,0,0,1-.11-.23,1.1,1.1,0,0,1,0-.27,1,1,0,0,1,.08-.39.85.85,0,0,1,.22-.28.76.76,0,0,1,.32-.17,1.35,1.35,0,0,1,.41-.06,1.23,1.23,0,0,1,.39.06.72.72,0,0,1,.3.16.73.73,0,0,1,.2.27.77.77,0,0,1,.08.34.83.83,0,0,1-.19.55,1.57,1.57,0,0,1-.57.38,1.45,1.45,0,0,1,.35.18,2.09,2.09,0,0,1,.28.24,1.61,1.61,0,0,1,.24.28l.23.31a2,2,0,0,0,.33-.68,2.56,2.56,0,0,0,.12-.79,1.11,1.11,0,0,0,0-.19,1.25,1.25,0,0,0,0-.19h.44a1.1,1.1,0,0,1,0,.18,1,1,0,0,1,0,.19,2.83,2.83,0,0,1-.05.5,2.53,2.53,0,0,1-.14.49,3.82,3.82,0,0,1-.21.46,3.68,3.68,0,0,1-.24.39l.17.23a1.36,1.36,0,0,0,.17.17.53.53,0,0,0,.36.12.5.5,0,0,0,.17,0l.17-.05v.42l-.2.05A.86.86,0,0,1,128.31,30ZM126,29.59a1.61,1.61,0,0,0,.39,0,1.52,1.52,0,0,0,.32-.12,1.27,1.27,0,0,0,.27-.18,2.23,2.23,0,0,0,.22-.21,4.93,4.93,0,0,0-.31-.45,3,3,0,0,0-.28-.32,1.66,1.66,0,0,0-.31-.23l-.38-.18-.32.15a1,1,0,0,0-.25.2.87.87,0,0,0-.23.62.81.81,0,0,0,.07.33.65.65,0,0,0,.19.24.82.82,0,0,0,.28.14A1,1,0,0,0,126,29.59Zm.69-2.81a.52.52,0,0,0,0-.23.42.42,0,0,0-.13-.16.56.56,0,0,0-.17-.09l-.19,0a.63.63,0,0,0-.43.14.51.51,0,0,0-.17.4.52.52,0,0,0,0,.21.66.66,0,0,0,.09.19,1.06,1.06,0,0,0,.15.15l.17.11a1.39,1.39,0,0,0,.52-.28A.55.55,0,0,0,126.69,26.78Z"/><path class="cls-1" d="M139.52,29.76v-.55a.86.86,0,0,0,.22.15,2.36,2.36,0,0,0,.28.12l.29.07.27,0a1,1,0,0,0,.64-.16.53.53,0,0,0,.21-.45.61.61,0,0,0-.07-.28,1,1,0,0,0-.2-.22,2.43,2.43,0,0,0-.29-.19l-.37-.18c-.13-.07-.26-.14-.38-.22a1.92,1.92,0,0,1-.31-.23,1,1,0,0,1-.21-.3.86.86,0,0,1-.08-.38.89.89,0,0,1,.12-.47,1.22,1.22,0,0,1,.31-.33,1.58,1.58,0,0,1,.44-.19,2.16,2.16,0,0,1,.51-.06,1.86,1.86,0,0,1,.85.14v.52a1.59,1.59,0,0,0-.9-.25,1,1,0,0,0-.3,0,.72.72,0,0,0-.27.1.7.7,0,0,0-.2.18.51.51,0,0,0-.07.28.53.53,0,0,0,.06.26.59.59,0,0,0,.16.2,2.11,2.11,0,0,0,.27.18l.37.18c.14.07.27.15.4.23a2,2,0,0,1,.33.25,1.31,1.31,0,0,1,.23.31,1,1,0,0,1,.08.39.91.91,0,0,1-.42.83,1.51,1.51,0,0,1-.45.18,2.33,2.33,0,0,1-.53.06l-.23,0-.28,0-.28-.08A.75.75,0,0,1,139.52,29.76Z"/><path class="cls-1" d="M149.84,29.92h-.64l-1.53-1.81-.1-.13h0v1.94h-.46V26h.46v1.86h0a.94.94,0,0,1,.1-.14L149.15,26h.57L148,27.87Z"/><path class="cls-1" d="M155.23,29.92h-.47V26h.47Z"/></g></svg>