<svg xmlns="http://www.w3.org/2000/svg" viewBox="0 0 211.33 50.05"><defs><style>.cls-1{fill:#007bff;}.cls-2{fill:#333;}</style></defs><title>Artboard 2-12</title><g id="Layer_2" data-name="Layer 2"><path class="cls-1" d="M17,30c-5.27,2.29-7-1.68-7-1.68Z"/><path class="cls-1" d="M17.7,30.73c-4.64,4.51-8.17,1.16-8.17,1.16Z"/><path class="cls-1" d="M18.72,31.24c-3,6.5-8.2,4.54-8.2,4.54Z"/><path class="cls-1" d="M20,31.33c-.4,7.86-6.79,8-6.79,8Z"/><path class="cls-1" d="M21.47,30.89c3,8.17-3.79,11-3.79,11Z"/><path class="cls-1" d="M22.81,29.85c6.67,7.11.68,12.71.68,12.71Z"/><path class="cls-1" d="M23.79,28.23C34,32.73,30,40.91,30,40.91Z"/><path class="cls-1" d="M24.14,26.18c12.77.4,12.06,10.37,12.06,10.37Z"/><path class="cls-1" d="M23.62,24C37.41,19.1,41,29.55,41,29.55Z"/><path class="cls-1" d="M22.12,21.89C34.72,11.27,43,20.46,43,20.46Z"/><path class="cls-1" d="M19.63,20.41c8.85-16,21.62-10,21.62-10Z"/><path class="cls-1" d="M62.59,17.94c-1,.09-1.09.19-1.09,1.35v4.52c0,1.59-.13,2.89-1.39,3.93a4.08,4.08,0,0,1-1.67.85l-.21-.51a2,2,0,0,0,1.29-1.65,17.75,17.75,0,0,0,.15-2.67V19.29c0-1.16-.14-1.26-1.18-1.35v-.48h4.1Z"/><path class="cls-1" d="M81.64,17.94c-.75,0-1.09.33-1.16.81a11,11,0,0,0-.12,1.9v1.49a4.76,4.76,0,0,1-1,3.42,3.48,3.48,0,0,1-2.53,1,3.86,3.86,0,0,1-2.43-.71c-.78-.6-1.13-1.61-1.13-3.22V19.42c0-1.29-.14-1.39-1.15-1.48v-.48h4.12v.48c-1,.09-1.14.19-1.14,1.48v3c0,2.05.74,3.24,2.22,3.24s2.34-1.23,2.34-3.52V20.65a10.41,10.41,0,0,0-.14-1.9c-.06-.48-.39-.76-1.32-.81v-.48h3.43Z"/><path class="cls-1" d="M99.43,26.48H99c-1.73-.09-2.26-.47-2.81-1.33-.36-.56-.73-1.3-1.12-2a1,1,0,0,0-.91-.61h-.26v2c0,1.13.14,1.26,1.17,1.36v.48H91v-.48c1-.1,1.18-.23,1.18-1.36V19.27c0-1.1-.12-1.24-1.12-1.33v-.48h3.84a4.1,4.1,0,0,1,2.44.52,2.08,2.08,0,0,1,.93,1.82A2.37,2.37,0,0,1,96.51,22c.19.4.71,1.32,1.11,1.95a11.05,11.05,0,0,0,1,1.47,1.94,1.94,0,0,0,.84.59ZM94.28,22a2,2,0,0,0,1.34-.37A2,2,0,0,0,96.28,20c0-1.45-.85-2-1.62-2a.93.93,0,0,0-.61.13c-.1.09-.13.22-.13.51V22Z"/><path class="cls-1" d="M117.21,26.48h-.41c-1.73-.09-2.26-.47-2.81-1.33-.35-.56-.72-1.3-1.12-2a.94.94,0,0,0-.9-.61h-.26v2c0,1.13.13,1.26,1.16,1.36v.48h-4.13v-.48c1-.1,1.17-.23,1.17-1.36V19.27c0-1.1-.12-1.24-1.12-1.33v-.48h3.85a4,4,0,0,1,2.43.52A2.09,2.09,0,0,1,116,19.8,2.38,2.38,0,0,1,114.29,22c.2.4.72,1.32,1.11,1.95a10.87,10.87,0,0,0,1.06,1.47,2,2,0,0,0,.83.59ZM112.06,22a2,2,0,0,0,1.35-.37,2,2,0,0,0,.65-1.63c0-1.45-.85-2-1.61-2a.94.94,0,0,0-.62.13c-.1.09-.12.22-.12.51V22Z"/><path class="cls-1" d="M131.65,26.36v-.48c.81-.13.88-.29.66-.89-.14-.41-.34-1-.55-1.55h-2.62c-.15.43-.33.92-.5,1.47s-.16.84.84,1v.48h-3.07l0-.48c.9-.11,1.06-.26,1.51-1.41l2.81-7,.7-.18c.88,2.4,1.72,4.78,2.61,7.14.47,1.2.65,1.38,1.51,1.49v.48Zm-1.16-6.6h0c-.38,1-.73,2-1.08,3h2.13Z"/><path class="cls-1" d="M150,19.69c-.29-.86-.79-1.87-1.92-1.87a1.3,1.3,0,0,0-1.32,1.35c0,.75.49,1.19,1.69,1.79,1.44.7,2.43,1.47,2.43,2.82,0,1.56-1.33,2.78-3.33,2.78a5,5,0,0,1-1.38-.19,7.26,7.26,0,0,1-.84-.3,16.21,16.21,0,0,1-.39-2.33l.48-.15c.27.88,1.08,2.41,2.39,2.41a1.32,1.32,0,0,0,1.37-1.44c0-.8-.6-1.31-1.63-1.86-1.41-.71-2.38-1.45-2.38-2.76,0-1.51,1.19-2.69,3.13-2.69a5.78,5.78,0,0,1,1.91.37c0,.51.15,1.11.26,2Z"/><path class="cls-1" d="M165.68,19.69c-.29-.86-.8-1.87-1.92-1.87a1.3,1.3,0,0,0-1.33,1.35c0,.75.49,1.19,1.7,1.79,1.44.7,2.42,1.47,2.42,2.82,0,1.56-1.33,2.78-3.32,2.78a5,5,0,0,1-1.39-.19,7,7,0,0,1-.83-.3,17.45,17.45,0,0,1-.4-2.33l.48-.15c.27.88,1.08,2.41,2.4,2.41a1.31,1.31,0,0,0,1.36-1.44c0-.8-.6-1.31-1.62-1.86-1.41-.71-2.39-1.45-2.39-2.76,0-1.51,1.2-2.69,3.14-2.69a5.7,5.7,0,0,1,1.9.37c.06.51.15,1.11.26,2Z"/><path class="cls-1" d="M176.11,26.36v-.48c1-.1,1.14-.19,1.14-1.34V19.29c0-1.16-.13-1.26-1.14-1.35v-.48h4.11v.48c-1,.09-1.14.19-1.14,1.35v5.25c0,1.15.12,1.24,1.14,1.34v.48Z"/><path class="cls-1" d="M198.42,24a15.31,15.31,0,0,1-.76,2.18,13.75,13.75,0,0,1-2.55.35c-3.64,0-5.16-2.37-5.16-4.54,0-2.81,2.16-4.77,5.44-4.77a10.86,10.86,0,0,1,2.49.37c.12.76.22,1.39.31,2.25l-.5.09a2.52,2.52,0,0,0-2.56-2.1c-2,0-3.08,1.87-3.08,3.88,0,2.52,1.35,4.18,3.21,4.18,1.14,0,2-.73,2.69-2.11Z"/><path class="cls-2" d="M98.62,34,97.5,37.89H97L96.15,35a1.29,1.29,0,0,1-.06-.4h0A1.68,1.68,0,0,1,96,35l-.81,2.89h-.54L93.49,34H94l.84,3a1.59,1.59,0,0,1,.07.39h0A2.07,2.07,0,0,1,95,37l.87-3h.44l.84,3a2.45,2.45,0,0,1,.07.37h0a1.63,1.63,0,0,1,.07-.38l.81-3Z"/><path class="cls-2" d="M106.45,37.89h-.51l-.42-1.1h-1.67l-.39,1.1h-.52L104.45,34h.48Zm-1.08-1.52-.62-1.68a1.46,1.46,0,0,1-.06-.26h0a2.07,2.07,0,0,1-.06.26L104,36.37Z"/><path class="cls-2" d="M114.18,37.89h-.65L112,36.09,111.9,36h0v1.94h-.46V34h.46V35.8h0l.11-.13L113.48,34h.58l-1.69,1.89Z"/><path class="cls-2" d="M121.19,37.89H119.1V34h2v.42h-1.54v1.31H121v.41h-1.43v1.39h1.63Z"/><path class="cls-2" d="M135.75,38a1.11,1.11,0,0,1-.28,0,.71.71,0,0,1-.22-.13,1.17,1.17,0,0,1-.2-.19l-.2-.25a1.89,1.89,0,0,1-.25.23,2.46,2.46,0,0,1-.32.19,2.24,2.24,0,0,1-.39.14,2.14,2.14,0,0,1-.45.05,1.92,1.92,0,0,1-.55-.08,1.38,1.38,0,0,1-.42-.21,1,1,0,0,1-.27-.36,1.1,1.1,0,0,1-.1-.49,1.12,1.12,0,0,1,.24-.72,1.71,1.71,0,0,1,.68-.49,1,1,0,0,1-.17-.14.9.9,0,0,1-.15-.18,1.6,1.6,0,0,1-.1-.23.86.86,0,0,1,0-.28.79.79,0,0,1,.08-.38.74.74,0,0,1,.21-.28.88.88,0,0,1,.33-.18,1.29,1.29,0,0,1,.4-.06,1.14,1.14,0,0,1,.39.06,1,1,0,0,1,.31.17.73.73,0,0,1,.2.26.81.81,0,0,1,.07.35.8.8,0,0,1-.19.55,1.44,1.44,0,0,1-.56.37,1.83,1.83,0,0,1,.34.18,2.17,2.17,0,0,1,.29.24,3.7,3.7,0,0,1,.24.29c.07.1.15.2.22.31a2.47,2.47,0,0,0,.34-.69,2.88,2.88,0,0,0,.11-.78,1.27,1.27,0,0,0,0-.2,1.16,1.16,0,0,0,0-.18h.44a.55.55,0,0,1,0,.17,1.48,1.48,0,0,0,0,.2,2.92,2.92,0,0,1-.05.5c0,.17-.09.33-.14.49a3.1,3.1,0,0,1-.21.45,3,3,0,0,1-.25.4l.18.23a1.21,1.21,0,0,0,.16.16.75.75,0,0,0,.17.1.6.6,0,0,0,.2,0l.16,0,.18-.06v.42a.73.73,0,0,1-.21.06Zm-2.31-.39a1.46,1.46,0,0,0,.38,0,1.61,1.61,0,0,0,.33-.12,1.27,1.27,0,0,0,.27-.18,1.45,1.45,0,0,0,.22-.21c-.11-.17-.22-.32-.31-.44a2.31,2.31,0,0,0-.29-.32,1.39,1.39,0,0,0-.31-.23,1.59,1.59,0,0,0-.37-.18A1.35,1.35,0,0,0,133,36a.82.82,0,0,0-.25.2.65.65,0,0,0-.17.26,1,1,0,0,0-.06.36.7.7,0,0,0,.26.57.82.82,0,0,0,.28.14A1.21,1.21,0,0,0,133.44,37.57Zm.69-2.81a.57.57,0,0,0,0-.24,1,1,0,0,0-.13-.16.61.61,0,0,0-.18-.09.58.58,0,0,0-.19,0,.61.61,0,0,0-.43.15.5.5,0,0,0-.16.39.78.78,0,0,0,0,.22,1.62,1.62,0,0,0,.1.18.67.67,0,0,0,.14.15.87.87,0,0,0,.18.11,1.48,1.48,0,0,0,.52-.28A.53.53,0,0,0,134.13,34.76Z"/><path class="cls-2" d="M147,37.74v-.55a.94.94,0,0,0,.22.15l.27.11.29.07.27,0a1.09,1.09,0,0,0,.64-.16.55.55,0,0,0,.21-.46.53.53,0,0,0-.07-.28.63.63,0,0,0-.19-.21,1.41,1.41,0,0,0-.3-.19l-.36-.19-.39-.21a1.83,1.83,0,0,1-.31-.24,1,1,0,0,1-.2-.29.92.92,0,0,1-.08-.38.94.94,0,0,1,.43-.8,1.25,1.25,0,0,1,.44-.19,1.68,1.68,0,0,1,.5-.07,2,2,0,0,1,.85.14v.52a1.54,1.54,0,0,0-.9-.24l-.3,0a1.08,1.08,0,0,0-.27.1.58.58,0,0,0-.19.19.48.48,0,0,0-.08.27.57.57,0,0,0,.06.27.63.63,0,0,0,.17.2,1.14,1.14,0,0,0,.27.17l.36.19a3.78,3.78,0,0,1,.4.22,1.8,1.8,0,0,1,.34.26,1,1,0,0,1,.22.31.8.8,0,0,1,.09.39.94.94,0,0,1-.12.49.82.82,0,0,1-.31.33,1.08,1.08,0,0,1-.44.18,2.35,2.35,0,0,1-.54.06h-.23l-.28-.05-.27-.07A1,1,0,0,1,147,37.74Z"/><path class="cls-2" d="M157.28,37.89h-.65l-1.52-1.8L155,36h0v1.94h-.46V34H155V35.8h0l.11-.13L156.58,34h.58l-1.69,1.89Z"/><path class="cls-2" d="M162.66,37.89h-.46V34h.46Z"/></g></svg>