<?xml version="1.0" standalone="no"?>
<!DOCTYPE svg PUBLIC "-//W3C//DTD SVG 20010904//EN"
 "http://www.w3.org/TR/2001/REC-SVG-20010904/DTD/svg10.dtd">
<svg version="1.0" xmlns="http://www.w3.org/2000/svg"
 width="500.000000pt" height="500.000000pt" viewBox="0 0 500.000000 500.000000"
 preserveAspectRatio="xMidYMid meet">
<metadata>
Created by potrace 1.14, written by Peter Selinger 2001-2017
</metadata>
<g transform="translate(0.000000,500.000000) scale(0.100000,-0.100000)"
fill="#000000" stroke="none">
<path d="M3807 4924 c-1 -1 -47 -5 -102 -8 -55 -4 -116 -9 -135 -12 -560 -83
-1027 -342 -1457 -806 -51 -56 -96 -110 -206 -248 -89 -111 -317 -464 -317
-490 0 -4 -6 -13 -14 -19 -8 -6 -16 -20 -19 -30 -3 -14 49 7 217 86 121 58
253 120 291 138 39 18 113 53 165 78 52 24 118 55 145 67 28 13 100 47 161 76
62 29 145 68 185 87 41 19 126 59 189 89 63 31 138 65 165 78 28 12 91 42 140
65 90 43 205 97 345 162 41 20 135 64 209 99 73 35 135 64 136 64 2 0 65 30
142 66 76 36 167 80 203 96 36 17 115 54 175 82 61 29 143 68 182 86 82 39 82
38 -30 76 -160 55 -367 97 -538 110 -83 6 -228 11 -232 8z"/>
<path d="M3478 3815 c-2 -1 -34 -5 -73 -9 -345 -33 -764 -200 -1150 -459 -74
-50 -257 -189 -308 -234 l-39 -35 104 7 c56 3 123 8 148 10 25 2 95 7 155 11
61 4 126 8 145 9 19 1 87 5 150 9 63 4 135 9 160 11 25 3 92 7 150 10 58 3
130 8 160 10 30 2 98 7 150 10 52 3 124 8 160 10 65 5 120 9 305 20 101 6 169
11 305 20 121 8 209 14 310 20 52 3 115 8 140 10 25 2 97 7 160 10 63 4 133 8
155 10 22 2 64 5 93 6 29 1 55 5 57 9 6 9 -88 92 -187 167 -141 106 -339 212
-493 263 -38 13 -79 26 -90 30 -30 11 -96 28 -134 35 -19 3 -37 8 -41 10 -4 2
-31 7 -60 10 -30 4 -58 9 -63 12 -9 5 -363 14 -369 8z"/>
<path d="M3017 2954 c-1 -1 -47 -5 -102 -8 -55 -3 -111 -8 -125 -11 -13 -2
-42 -7 -65 -10 -152 -21 -406 -85 -564 -143 l-43 -16 83 -27 c46 -15 224 -73
394 -129 171 -56 315 -103 320 -104 6 -2 17 -6 25 -9 8 -3 204 -67 435 -142
231 -76 479 -156 550 -180 388 -128 688 -225 691 -222 2 2 -24 57 -57 123
-209 416 -583 719 -1019 824 -105 26 -183 39 -270 46 -75 6 -249 11 -253 8z"/>
<path d="M2251 2395 c100 -88 114 -100 254 -220 77 -65 154 -131 170 -146 17
-15 80 -69 140 -120 61 -52 112 -96 115 -99 5 -6 344 -296 368 -315 7 -5 21
-17 30 -26 9 -9 67 -58 127 -110 61 -51 112 -95 115 -99 11 -12 356 -307 369
-314 22 -14 8 186 -24 328 -80 359 -268 643 -553 840 -277 190 -626 296 -1061
322 l-104 6 54 -47z"/>
<path d="M170 2140 c0 -12 59 -97 100 -143 54 -61 158 -128 250 -162 64 -24
93 -28 200 -31 79 -1 149 3 190 11 98 21 263 78 248 86 -12 6 -118 32 -770
192 -120 29 -218 51 -218 47z"/>
<path d="M2173 2093 c14 -26 80 -163 147 -303 121 -252 184 -383 335 -695 42
-88 100 -207 128 -265 27 -58 97 -202 154 -320 l105 -215 20 50 c21 52 57 172
64 215 2 14 6 34 9 46 17 78 24 245 14 349 -13 134 -19 166 -55 274 -95 287
-293 529 -594 727 -94 61 -284 165 -328 179 l-23 7 24 -49z"/>
<path d="M2004 1860 c3 -30 8 -115 11 -189 3 -74 8 -157 10 -185 2 -28 7 -107
10 -176 8 -170 15 -310 20 -400 2 -41 7 -127 10 -190 3 -63 8 -146 10 -185 3
-38 7 -126 10 -195 9 -189 14 -262 19 -267 5 -5 99 111 144 178 40 60 104 188
135 269 155 416 55 872 -283 1285 -32 39 -67 79 -79 90 l-22 19 5 -54z"/>
<path d="M1259 1786 c-2 -2 -29 -7 -59 -10 -30 -4 -116 -15 -190 -26 -74 -11
-153 -22 -175 -24 -37 -5 -78 -11 -145 -21 -14 -2 -47 -7 -75 -10 -27 -4 -61
-8 -75 -10 -14 -2 -47 -7 -75 -11 -27 -3 -58 -8 -69 -10 -10 -2 -44 -6 -75
-10 -31 -3 -64 -8 -75 -10 -10 -2 -44 -6 -75 -10 -85 -10 -87 -15 -17 -62 223
-150 506 -165 764 -42 46 22 116 62 155 90 68 47 209 169 196 170 -3 0 -8 -2
-10 -4z"/>
<path d="M1753 1598 c-28 -84 -99 -292 -158 -463 -276 -802 -327 -951 -332
-968 -5 -17 -1 -16 43 6 141 72 327 239 417 375 184 276 233 588 153 977 -8
35 -65 225 -69 225 -1 0 -25 -69 -54 -152z"/>
<path d="M1326 1654 c-87 -49 -76 -43 -521 -288 -176 -97 -327 -180 -335 -185
-8 -6 -35 -21 -60 -34 -170 -92 -174 -94 -154 -105 30 -16 138 -33 223 -36
140 -4 320 39 439 105 175 99 337 278 456 503 20 39 35 73 34 77 -2 4 -38 -12
-82 -37z"/>
<path d="M1568 1653 c-28 -31 -102 -120 -368 -438 -100 -121 -204 -245 -230
-275 -26 -30 -74 -87 -106 -126 -123 -148 -139 -168 -149 -178 -30 -32 -87
-107 -84 -111 4 -3 123 16 174 29 47 11 141 48 197 76 329 167 524 475 582
920 12 91 16 130 13 130 -2 0 -15 -12 -29 -27z"/>
</g>
</svg>
